<?xml version="1.0" encoding="UTF-8" ?>
<!DOCTYPE svg PUBLIC "-//W3C//DTD SVG 1.1//EN" "http://www.w3.org/Graphics/SVG/1.1/DTD/svg11.dtd">
<svg width="120pt" height="37pt" viewBox="0 0 929 290" version="1.1" xmlns="http://www.w3.org/2000/svg">
<g id="#ffffffff">
<path fill="#ffffff" opacity="1.00" d=" M 290.98 9.12 C 308.80 5.69 326.76 2.75 344.87 1.37 C 353.42 0.71 362.11 0.41 370.57 2.15 C 368.04 12.52 365.00 22.76 362.66 33.18 C 357.86 33.86 352.95 32.82 348.22 33.67 C 316.49 36.65 285.03 42.25 254.01 49.53 C 207.85 60.54 162.10 74.46 119.28 95.15 C 97.54 105.98 76.10 118.51 59.18 136.20 C 48.67 147.27 40.19 161.35 39.54 176.96 C 38.67 188.49 44.13 199.80 52.80 207.23 C 62.98 216.68 77.17 221.04 90.92 220.21 C 101.45 219.95 111.40 215.92 120.74 211.36 C 123.57 215.01 124.17 219.75 125.40 224.08 C 126.28 228.60 127.89 233.22 127.35 237.87 C 124.50 241.00 120.03 241.82 116.16 243.07 C 107.57 245.30 98.81 246.90 90.00 247.99 C 69.96 249.71 49.11 245.10 32.41 233.67 C 20.81 225.70 10.68 214.98 5.32 201.82 C -0.06 188.64 -0.39 173.63 3.85 160.09 C 8.32 145.50 17.40 132.78 27.87 121.87 C 43.89 105.30 63.19 92.31 83.12 80.93 C 124.31 57.85 168.87 41.47 214.01 27.99 C 239.37 20.57 265.04 14.17 290.98 9.12 Z" />
<path fill="#ffffff" opacity="1.00" d=" M 208.03 128.92 C 226.72 124.79 247.02 124.39 264.86 132.14 C 271.54 134.91 277.38 139.31 282.55 144.31 C 283.59 139.15 284.41 133.95 285.50 128.80 C 298.78 128.93 312.07 128.81 325.35 128.86 C 318.23 165.79 311.15 202.73 303.99 239.65 C 290.84 239.63 277.70 239.64 264.55 239.64 C 265.30 235.69 266.08 231.74 266.79 227.78 C 261.62 230.60 256.59 233.70 251.13 235.97 C 239.21 241.24 225.99 242.82 213.06 242.38 C 197.23 242.08 180.94 238.25 168.07 228.68 C 157.68 220.92 148.95 209.97 146.65 196.94 C 143.93 183.76 148.23 169.92 156.43 159.48 C 168.85 143.04 188.33 133.50 208.03 128.92 M 226.49 151.56 C 214.48 153.16 202.64 158.25 194.20 167.10 C 186.73 174.83 183.67 186.58 186.57 196.94 C 188.69 204.13 194.48 209.64 201.00 213.00 C 211.69 218.62 224.25 219.20 236.04 217.89 C 248.16 216.61 260.26 211.59 268.32 202.20 C 275.12 194.71 279.63 184.17 277.04 173.99 C 275.33 165.70 268.66 159.38 261.28 155.82 C 250.52 150.65 238.15 150.20 226.49 151.56 Z" />
<path fill="#ffffff" opacity="1.00" d=" M 400.57 136.61 C 412.11 127.50 428.20 123.35 442.43 127.91 C 437.70 136.04 432.90 144.14 428.14 152.26 C 419.73 150.04 410.52 152.30 403.89 157.85 C 394.40 165.34 391.26 177.73 388.33 188.88 C 384.75 205.70 381.72 222.63 378.66 239.55 C 365.27 239.77 351.86 239.56 338.47 239.66 C 345.60 202.73 352.64 165.78 359.84 128.86 C 371.68 128.85 383.51 128.85 395.34 128.86 C 394.57 133.51 393.45 138.10 392.90 142.79 C 395.88 141.30 397.90 138.54 400.57 136.61 Z" />
<path fill="#ffffff" opacity="1.00" d=" M 604.92 134.17 C 621.41 131.66 638.97 131.69 654.53 138.39 C 660.60 140.91 665.93 144.78 671.30 148.48 C 672.28 144.18 673.00 139.83 673.93 135.51 C 687.23 135.47 700.54 135.58 713.84 135.46 C 708.38 162.31 702.99 189.18 697.56 216.04 C 695.14 227.83 693.01 239.75 688.87 251.09 C 686.89 256.81 683.55 262.02 679.16 266.20 C 669.69 275.38 657.36 281.12 644.81 284.79 C 629.63 288.97 613.75 289.95 598.07 289.54 C 581.08 289.08 563.91 286.02 548.55 278.52 C 541.79 275.24 535.37 271.02 530.31 265.40 C 541.95 261.91 553.24 257.33 564.76 253.45 C 578.64 263.24 596.39 265.51 612.96 264.24 C 624.06 263.41 635.53 260.51 644.34 253.40 C 650.54 248.45 653.44 240.65 654.98 233.10 C 635.29 244.74 611.52 248.52 589.04 244.95 C 572.93 242.30 556.69 235.72 545.76 223.17 C 538.45 214.98 534.29 204.00 534.86 192.99 C 535.30 178.55 543.76 165.62 554.42 156.40 C 568.62 144.28 586.66 137.31 604.92 134.17 M 616.41 158.66 C 603.77 160.03 591.25 165.16 582.29 174.36 C 576.73 180.07 573.49 188.11 574.20 196.12 C 574.53 203.19 578.75 209.63 584.51 213.54 C 593.60 219.95 605.05 221.58 615.92 221.62 C 629.22 221.36 643.05 218.22 653.74 209.93 C 661.58 203.80 667.61 194.30 666.92 184.03 C 666.79 176.52 661.85 169.97 655.74 166.01 C 644.33 158.23 629.77 157.20 616.41 158.66 Z" />
<path fill="#ffffff" opacity="1.00" d=" M 789.06 143.20 C 800.62 133.99 816.68 130.11 830.96 134.43 C 826.20 142.60 821.33 150.71 816.63 158.92 C 808.49 156.70 799.52 158.72 792.97 163.97 C 783.59 170.90 780.22 182.77 777.30 193.49 C 773.30 210.93 770.51 228.63 767.01 246.18 C 753.66 246.20 740.30 246.19 726.94 246.18 C 734.04 209.29 741.20 172.40 748.24 135.50 C 760.10 135.50 771.97 135.57 783.84 135.46 C 782.97 140.23 781.94 144.98 781.25 149.78 C 784.15 147.94 786.30 145.21 789.06 143.20 Z" />
<path fill="#ffffff" opacity="1.00" d=" M 460.57 209.73 C 468.45 207.78 477.14 208.02 484.57 211.51 C 488.59 213.46 492.48 216.34 494.35 220.53 C 496.31 224.99 495.32 230.49 491.98 234.02 C 486.42 240.01 477.99 242.62 469.97 242.43 C 462.02 242.55 453.64 239.90 448.25 233.82 C 444.75 230.00 443.97 223.96 446.59 219.46 C 449.54 214.36 455.06 211.30 460.57 209.73 Z" />
</g>
<g id="#73c8e8ff">
<path fill="#73c8e8" opacity="1.00" d=" M 370.57 2.15 C 387.10 5.43 402.24 13.22 417.13 20.81 C 440.91 33.19 464.45 46.39 489.95 54.99 C 504.83 60.08 520.30 63.59 535.99 64.86 C 548.64 65.77 561.33 65.40 574.00 65.59 C 629.04 66.08 684.12 67.95 738.97 72.86 C 762.72 75.08 786.43 77.87 809.96 81.85 C 833.57 85.96 857.17 90.96 879.70 99.28 C 892.33 104.10 904.92 109.83 915.22 118.75 C 922.31 124.88 928.21 133.35 928.47 143.01 C 928.94 153.72 923.32 163.54 916.71 171.54 C 905.04 185.30 889.97 195.68 874.47 204.67 C 856.27 215.00 836.95 223.42 816.87 229.35 C 806.49 232.30 795.83 234.84 784.98 234.76 C 787.99 231.96 791.88 230.46 795.45 228.53 C 810.30 221.14 825.21 213.85 839.68 205.75 C 856.57 196.21 873.42 186.01 887.33 172.34 C 893.81 165.68 900.16 157.63 900.70 147.97 C 901.05 138.93 894.51 131.49 887.46 126.69 C 875.05 118.27 860.52 113.74 846.18 109.89 C 822.52 103.73 798.27 100.22 774.03 97.33 C 707.64 89.93 640.77 88.19 574.02 87.42 C 560.36 87.19 546.65 87.81 533.05 86.20 C 490.67 81.55 451.74 63.06 412.59 47.46 C 393.28 40.13 373.14 32.15 352.09 33.87 C 350.78 34.02 349.49 33.96 348.22 33.67 C 352.95 32.82 357.86 33.86 362.66 33.18 C 365.00 22.76 368.04 12.52 370.57 2.15 Z" />
</g>
</svg>
